<svg xmlns="http://www.w3.org/2000/svg" xmlns:xlink="http://www.w3.org/1999/xlink" viewBox="0,0,256,256" width="24px" height="24px" fill-rule="nonzero"><g fill="#ccd6f6" fill-rule="nonzero" stroke="none" stroke-width="1" stroke-linecap="butt" stroke-linejoin="miter" stroke-miterlimit="10" stroke-dasharray="" stroke-dashoffset="0" font-family="none" font-weight="none" font-size="none" text-anchor="none" style="mix-blend-mode: normal"><g transform="scale(10.66667,10.66667)"><path d="M12,1.99609c-5.51291,0 -10.00195,4.49109 -10.00195,10.00391c0,4.67733 3.22399,8.6194 7.57813,9.70117c0.22417,0.05593 0.46161,0.00542 0.64361,-0.1369c0.182,-0.14232 0.28826,-0.36058 0.28803,-0.59162l-0.00195,-4.94727c0,-0.25906 0.0642,-0.49176 0.18164,-0.70898c0.10816,-0.20018 0.11961,-0.43863 0.03113,-0.64825c-0.08848,-0.20962 -0.26733,-0.36775 -0.48621,-0.42988c-1.7017,-0.4838 -2.73633,-1.60444 -2.73633,-2.74609c0,-0.63398 0.30526,-1.24 0.9043,-1.76953c0.1967,-0.17429 0.28784,-0.43881 0.24023,-0.69727c-0.06067,-0.33158 -0.03089,-0.67755 -0.05273,-1.01367c0.36618,0.18908 0.76036,0.31516 1.0957,0.57813c0.18763,0.14736 0.43418,0.19667 0.66406,0.13281c0.50263,-0.13986 1.05693,-0.21289 1.64649,-0.21289c0.58846,0 1.14385,0.07303 1.64648,0.21289c0.22957,0.06441 0.47609,0.01583 0.66406,-0.13086c0.33662,-0.26315 0.73068,-0.39067 1.09766,-0.58008c-0.02184,0.33619 0.00781,0.68272 -0.05274,1.01367c-0.0476,0.25846 0.04354,0.52298 0.24024,0.69727c0.59955,0.52999 0.90625,1.13669 0.90625,1.76953c0,1.14261 -1.03129,2.25017 -2.73437,2.74805c-0.21748,0.06394 -0.39437,0.22281 -0.48124,0.43219c-0.08686,0.20938 -0.07438,0.44682 0.03397,0.64593c0.11768,0.21575 0.18164,0.44794 0.18164,0.70703l-0.00195,4.94727c-0.00023,0.23104 0.10603,0.4493 0.28803,0.59162c0.182,0.14232 0.41944,0.19282 0.64361,0.1369c4.35228,-1.08184 7.57617,-5.02384 7.57617,-9.70117c0,-5.51282 -4.48904,-10.00391 -10.00195,-10.00391zM12,3.49609c4.70109,0 8.50195,3.80272 8.50195,8.50391c0,3.62717 -2.31875,6.62114 -5.50781,7.8418l0.00195,-3.81641c0,-0.25787 -0.12104,-0.4734 -0.18359,-0.71289c1.77822,-0.73786 3.18359,-2.0498 3.18359,-3.82031c0,-0.98401 -0.47869,-1.8506 -1.15234,-2.5625c0.10759,-0.73381 0.17456,-1.47395 0.11719,-2.23828c-0.01714,-0.23052 -0.13961,-0.44027 -0.33194,-0.56849c-0.19234,-0.12822 -0.43305,-0.1606 -0.65243,-0.08776c-0.79263,0.2642 -1.54481,0.68973 -2.26562,1.19922c-0.5534,-0.12586 -1.12055,-0.22461 -1.7168,-0.22461c-0.597,0 -1.16336,0.09875 -1.7168,0.22461c-0.72015,-0.50972 -1.47327,-0.93544 -2.26367,-1.19922c-0.21907,-0.07279 -0.45946,-0.04065 -0.65172,0.08714c-0.19225,0.12779 -0.31496,0.33699 -0.33266,0.56716c-0.05933,0.76662 0.00943,1.50677 0.11719,2.24023c-0.67351,0.71232 -1.15039,1.57948 -1.15039,2.5625c0,1.77034 1.40653,3.09098 3.19141,3.82227c-0.06178,0.23878 -0.18164,0.45438 -0.18164,0.71094v0.47852h-0.75781c-0.25225,0 -0.40973,-0.08446 -0.64258,-0.29883c-0.23285,-0.21437 -0.48397,-0.55701 -0.77344,-0.91602c-0.14085,-0.17956 -0.35578,-0.28523 -0.58398,-0.28711c-0.29142,-0.0017 -0.55744,0.16556 -0.68222,0.42892c-0.12477,0.26336 -0.08571,0.57516 0.10019,0.7996c0.24754,0.307 0.52472,0.71249 0.92188,1.07813c0.39715,0.36563 0.96941,0.69531 1.66016,0.69531h0.75977v1.83789c-3.1906,-1.22069 -5.50977,-4.21463 -5.50977,-7.8418c0,-4.70118 3.80087,-8.50391 8.50195,-8.50391z"></path></g></g></svg>